<svg preserveAspectRatio="none" data-bbox="45.333 9.031 311.167 376.117" xmlns="http://www.w3.org/2000/svg"
     viewBox="45.333 9.031 311.167 376.117" role=presentation aria-hidden=true>
    <g>
        <path d="M256 233.25s-7.25 2-18.25 5.75c0 0-19.5 7.5-31 14.25 0 0-.75-26.75 15.5-61.75 0 0 46.751-2.833 68.417-33.833 0 0 17.999-20.667 17.666-70 0 0-40-2.333-70 28.667 0 0-16 14.333-22 69.333 0 0-16.667 34-22.333 48.333 0 0-9.333-16.333-16-76 0 0 64.334-43.333 13.333-117 0 0-69.667 46.667-22 116.333 0 0-4.333 57.333 18.333 96.667l-5.333 25.667S171.666 266.667 141 242c0 0-4.666-2.5-6.833-9.667 0 0-12.833-36.833-54.667-38.5 0 0-13.667-1.5-34.167 5.667 0 0 11.333 68 87.333 48.167 0 0 1.833-2.167 6.5 3.333 0 0 34.995 38.832 37.164 48.666L171.665 381s7.999 9.333 25.333 0l4.335-97.333s-.334-15.333 8.999-18.667l42.666-24s2.752-2.25 5.252 1c0 0 51.75 44.857 98.25-13.696 0 0-45.663-49.289-100.5 4.946z"/>
        <path d="M73 85s-23.333 104.001 76.667 116.667c0 0 24.666-96.667-76.667-116.667z"/>
        <path d="M278.064 9.031s-73.809 21.066-47.374 88.671c-.001 0 69.627-17.697 47.374-88.671z"/>
        <path d="M346.067 158.555s-49.454-12.699-56.985 34.996c0-.001 45.922 13.227 56.985-34.996z"/>
    </g>
</svg>
